#!OML:ASF H:\Terrain\Patient Classification 1\Terrain2\Thursday\justin.ASF
:FULLY-SPECIFIED
:DEGREES
2329
root -3.20683 23.4566 -0.417918 -415.335 88.5189 -53.8516
lowerback 14.5735 1.28076 -3.1176
upperback 3.50558 1.44256 1.10822
thorax -4.55594 0.809263 2.6622
lowerneck -14.1269 -2.18062 -7.45071
upperneck 34.4117 -1.19421 4.01659
head 14.2292 -0.545365 2.85763
rclavicle -3.16192e-015 1.46604e-015
rhumerus -29.1118 -5.53865 -80.7128
rradius 33.81
rwrist -11.0517
rhand -21.8377 12.09
rfingers 7.12502
rthumb 4.56545 -17.8408
lclavicle -3.16192e-015 1.46604e-015
lhumerus -32.104 -1.97351 85.1442
lradius 36.601
lwrist 8.95162
lhand -19.6273 21.5769
lfingers 7.12502
lthumb 6.6996 51.4509
rfemur -40.3817 -14.9874 17.3021
rtibia 96.0171
rfoot -11.2941 0.823966
rtoes 10.6868
lfemur -8.70549 3.01727 -23.3369
ltibia 33.1611
lfoot -16.4182 -11.6838
ltoes 19.6002
2330
root -3.09475 23.4812 -0.413274 -410.608 89.1101 -48.7662
lowerback 14.5019 1.15555 -3.76736
upperback 3.5238 1.18451 1.11265
thorax -4.49001 0.687001 3.0844
lowerneck -14.0149 -2.07251 -7.70672
upperneck 34.7094 -0.915098 3.96691
head 14.3231 -0.461324 2.93842
rclavicle -1.02164e-014 -1.23619e-014
rhumerus -29.3736 -4.87937 -80.5731
rradius 33.8207
rwrist -11.4172
rhand -21.6261 11.8712
rfingers 7.12502
rthumb 4.76976 -18.0551
lclavicle -1.02164e-014 -1.23619e-014
lhumerus -32.1771 -1.41507 85.1914
lradius 36.6249
lwrist 8.76827
lhand -19.5046 21.249
lfingers 7.12502
lthumb 6.81807 51.1192
rfemur -40.7618 -15.3811 17.0405
rtibia 95.2238
rfoot -11.9459 0.478739
rtoes 9.927
lfemur -7.39321 3.23595 -23.8301
ltibia 32.2276
lfoot -16.1612 -12.0863
ltoes 19.6218
2331
root -2.98821 23.5034 -0.40925 -410.928 89.6474 -48.9009
lowerback 14.3546 1.00928 -4.15679
upperback 3.4816 0.932838 1.03627
thorax -4.43712 0.56474 3.27198
lowerneck -14.1281 -2.00988 -7.89065
upperneck 35.1379 -0.751376 4.05392
head 14.537 -0.401316 3.05189
rclavicle -6.41391e-015 -8.27441e-015
rhumerus -29.678 -4.62034 -80.5082
rradius 33.8918
rwrist -11.4669
rhand -21.5495 11.8307
rfingers 7.12502
rthumb 4.8438 -18.094
lclavicle -6.41391e-015 -8.27441e-015
lhumerus -32.2637 -1.45077 85.1366
lradius 36.784
lwrist 8.8891
lhand -19.457 21.2625
lfingers 7.12502
lthumb 6.86398 51.1312
rfemur -41.3104 -15.6474 16.964
rtibia 94.2236
rfoot -12.4896 0.271208
rtoes 10.4435
lfemur -6.42787 3.39357 -24.136
ltibia 31.4419
lfoot -15.5641 -12.9972
ltoes 23.8175
2332
root -2.8823 23.532 -0.400011 -466.333 89.4879 -104.254
lowerback 14.1144 0.895116 -3.90691
upperback 3.41336 0.825113 1.08421
thorax -4.36744 0.507283 3.20138
lowerneck -14.0706 -2.0293 -7.81986
upperneck 35.3026 -0.812253 4.12201
head 14.6043 -0.405756 3.06518
rclavicle -1.54136e-015 6.43565e-015
rhumerus -29.9299 -4.96127 -80.354
rradius 33.7684
rwrist -11.2298
rhand -21.72 12.1075
rfingers 7.12502
rthumb 4.6791 -17.8208
lclavicle -1.54136e-015 6.43565e-015
lhumerus -32.2286 -1.68925 85.0162
lradius 36.8466
lwrist 8.95025
lhand -19.5444 21.4548
lfingers 7.12502
lthumb 6.77968 51.3262
rfemur -41.8986 -15.7307 17.7134
rtibia 93.0432
rfoot -12.7871 0.0251794
rtoes 11.8479
lfemur -5.65711 3.45484 -23.7308
ltibia 30.7662
lfoot -15.3514 -13.468
ltoes 23.9337
2333
root -2.7769 23.5393 -0.392195 -509.171 89.4626 -147.031
lowerback 13.8394 0.848927 -4.18991
upperback 3.37625 0.732281 1.11186
thorax -4.25168 0.460616 3.40898
lowerneck -13.8331 -2.04683 -7.68432
upperneck 35.2604 -0.809537 3.89572
head 14.529 -0.413469 2.94455
rclavicle -8.19987e-016 -1.44119e-015
rhumerus -30.1574 -4.86994 -80.1107
rradius 33.768
rwrist -11.5254
rhand -21.7356 12.09
rfingers 7.12502
rthumb 4.66409 -17.8387
lclavicle -8.19987e-016 -1.44119e-015
lhumerus -32.2039 -1.50617 84.9878
lradius 36.9105
lwrist 8.7812
lhand -19.1051 21.4873
lfingers 7.12502
lthumb 7.20368 51.3447
rfemur -42.5369 -15.8954 17.9136
rtibia 91.9494
rfoot -13.016 -0.246975
rtoes 12.0657
lfemur -4.87105 3.5345 -23.9237
ltibia 30.1891
lfoot -15.4238 -13.2451
ltoes 19.1702
